<?xml version="1.0" encoding="utf-8"?>
<!-- Generator: Adobe Illustrator 16.0.0, SVG Export Plug-In . SVG Version: 6.00 Build 0)  -->
<!DOCTYPE svg PUBLIC "-//W3C//DTD SVG 1.1//EN" "http://www.w3.org/Graphics/SVG/1.1/DTD/svg11.dtd">
<svg version="1.1" id="Layer_1" xmlns="http://www.w3.org/2000/svg" xmlns:xlink="http://www.w3.org/1999/xlink" x="0px" y="0px"
	 width="100px" height="100px" viewBox="0 0 100 100" enable-background="new 0 0 100 100" xml:space="preserve">
<path fill-rule="evenodd" clip-rule="evenodd" fill="#FFFFFF" d="M50.074,6.02c24.304,0.028,43.932,19.696,43.913,44.003
	C93.966,74.205,74.104,94.024,49.93,93.981C25.736,93.938,5.989,74.112,6.014,49.889C6.04,25.637,25.771,5.991,50.074,6.02z
	 M12.215,49.896C12.174,70.74,29.043,87.694,49.872,87.743c20.865,0.05,37.804-16.757,37.9-37.604
	c0.098-20.917-16.909-38.035-37.78-38.028C29.206,12.118,12.257,29.07,12.215,49.896z"/>
<path fill-rule="evenodd" clip-rule="evenodd" fill="#FFFFFF" d="M47.33,50.12c-3.898-3.863-7.37-7.291-10.826-10.733
	c-1.147-1.142-2.771-2.416-1.039-4.04c1.674-1.569,2.922,0.049,4.067,1.2c3.428,3.445,6.851,6.894,10.467,10.535
	c3.345-3.367,6.484-6.527,9.624-9.687c0.517-0.519,1.048-1.024,1.551-1.555c1.011-1.066,2.21-1.622,3.396-0.495
	c1.213,1.151,0.645,2.341-0.4,3.376c-2.022,2.003-4.014,4.038-6.044,6.035c-1.68,1.653-3.396,3.269-5.312,5.107
	c3.434,3.421,6.703,6.678,9.973,9.936c0.575,0.574,1.42,1.063,1.649,1.756c0.31,0.93,0.142,2.019,0.179,3.038
	c-1.013-0.048-2.381,0.309-2.975-0.215c-2.619-2.31-5.035-4.852-7.481-7.351c-1.304-1.331-2.521-2.746-3.981-4.348
	c-3.539,3.55-6.792,6.814-10.047,10.078c-0.574,0.576-1.064,1.42-1.756,1.649c-0.921,0.305-2.002,0.129-3.015,0.16
	c0.054-1.021-0.297-2.392,0.23-2.999c2.128-2.45,4.503-4.691,6.835-6.959C43.935,53.141,45.532,51.759,47.33,50.12z"/>
</svg>
